<svg id="container" width="985.19921875" xmlns="http://www.w3.org/2000/svg" class="flowchart" height="914.7007446289062" viewBox="0 0 985.19921875 914.7007446289062" role="graphics-document document" aria-roledescription="flowchart-v2"><style>#container{font-family:"trebuchet ms",verdana,arial,sans-serif;font-size:16px;fill:#333;}@keyframes edge-animation-frame{from{stroke-dashoffset:0;}}@keyframes dash{to{stroke-dashoffset:0;}}#container .edge-animation-slow{stroke-dasharray:9,5!important;stroke-dashoffset:900;animation:dash 50s linear infinite;stroke-linecap:round;}#container .edge-animation-fast{stroke-dasharray:9,5!important;stroke-dashoffset:900;animation:dash 20s linear infinite;stroke-linecap:round;}#container .error-icon{fill:#552222;}#container .error-text{fill:#552222;stroke:#552222;}#container .edge-thickness-normal{stroke-width:1px;}#container .edge-thickness-thick{stroke-width:3.5px;}#container .edge-pattern-solid{stroke-dasharray:0;}#container .edge-thickness-invisible{stroke-width:0;fill:none;}#container .edge-pattern-dashed{stroke-dasharray:3;}#container .edge-pattern-dotted{stroke-dasharray:2;}#container .marker{fill:#333333;stroke:#333333;}#container .marker.cross{stroke:#333333;}#container svg{font-family:"trebuchet ms",verdana,arial,sans-serif;font-size:16px;}#container p{margin:0;}#container .label{font-family:"trebuchet ms",verdana,arial,sans-serif;color:#333;}#container .cluster-label text{fill:#333;}#container .cluster-label span{color:#333;}#container .cluster-label span p{background-color:transparent;}#container .label text,#container span{fill:#333;color:#333;}#container .node rect,#container .node circle,#container .node ellipse,#container .node polygon,#container .node path{fill:#ECECFF;stroke:#9370DB;stroke-width:1px;}#container .rough-node .label text,#container .node .label text,#container .image-shape .label,#container .icon-shape .label{text-anchor:middle;}#container .node .katex path{fill:#000;stroke:#000;stroke-width:1px;}#container .rough-node .label,#container .node .label,#container .image-shape .label,#container .icon-shape .label{text-align:center;}#container .node.clickable{cursor:pointer;}#container .root .anchor path{fill:#333333!important;stroke-width:0;stroke:#333333;}#container .arrowheadPath{fill:#333333;}#container .edgePath .path{stroke:#333333;stroke-width:2.0px;}#container .flowchart-link{stroke:#333333;fill:none;}#container .edgeLabel{background-color:rgba(232,232,232, 0.8);text-align:center;}#container .edgeLabel p{background-color:rgba(232,232,232, 0.8);}#container .edgeLabel rect{opacity:0.5;background-color:rgba(232,232,232, 0.8);fill:rgba(232,232,232, 0.8);}#container .labelBkg{background-color:rgba(232, 232, 232, 0.5);}#container .cluster rect{fill:#ffffde;stroke:#aaaa33;stroke-width:1px;}#container .cluster text{fill:#333;}#container .cluster span{color:#333;}#container div.mermaidTooltip{position:absolute;text-align:center;max-width:200px;padding:2px;font-family:"trebuchet ms",verdana,arial,sans-serif;font-size:12px;background:hsl(80, 100%, 96.2745098039%);border:1px solid #aaaa33;border-radius:2px;pointer-events:none;z-index:100;}#container .flowchartTitleText{text-anchor:middle;font-size:18px;fill:#333;}#container rect.text{fill:none;stroke-width:0;}#container .icon-shape,#container .image-shape{background-color:rgba(232,232,232, 0.8);text-align:center;}#container .icon-shape p,#container .image-shape p{background-color:rgba(232,232,232, 0.8);padding:2px;}#container .icon-shape rect,#container .image-shape rect{opacity:0.5;background-color:rgba(232,232,232, 0.8);fill:rgba(232,232,232, 0.8);}#container .label-icon{display:inline-block;height:1em;overflow:visible;vertical-align:-0.125em;}#container .node .label-icon path{fill:currentColor;stroke:revert;stroke-width:revert;}#container :root{--mermaid-font-family:"trebuchet ms",verdana,arial,sans-serif;}</style><g><marker id="container_flowchart-v2-pointEnd" class="marker flowchart-v2" viewBox="0 0 10 10" refX="5" refY="5" markerUnits="userSpaceOnUse" markerWidth="8" markerHeight="8" orient="auto"><path d="M 0 0 L 10 5 L 0 10 z" class="arrowMarkerPath" style="stroke-width: 1; stroke-dasharray: 1, 0;"></path></marker><marker id="container_flowchart-v2-pointStart" class="marker flowchart-v2" viewBox="0 0 10 10" refX="4.5" refY="5" markerUnits="userSpaceOnUse" markerWidth="8" markerHeight="8" orient="auto"><path d="M 0 5 L 10 10 L 10 0 z" class="arrowMarkerPath" style="stroke-width: 1; stroke-dasharray: 1, 0;"></path></marker><marker id="container_flowchart-v2-circleEnd" class="marker flowchart-v2" viewBox="0 0 10 10" refX="11" refY="5" markerUnits="userSpaceOnUse" markerWidth="11" markerHeight="11" orient="auto"><circle cx="5" cy="5" r="5" class="arrowMarkerPath" style="stroke-width: 1; stroke-dasharray: 1, 0;"></circle></marker><marker id="container_flowchart-v2-circleStart" class="marker flowchart-v2" viewBox="0 0 10 10" refX="-1" refY="5" markerUnits="userSpaceOnUse" markerWidth="11" markerHeight="11" orient="auto"><circle cx="5" cy="5" r="5" class="arrowMarkerPath" style="stroke-width: 1; stroke-dasharray: 1, 0;"></circle></marker><marker id="container_flowchart-v2-crossEnd" class="marker cross flowchart-v2" viewBox="0 0 11 11" refX="12" refY="5.2" markerUnits="userSpaceOnUse" markerWidth="11" markerHeight="11" orient="auto"><path d="M 1,1 l 9,9 M 10,1 l -9,9" class="arrowMarkerPath" style="stroke-width: 2; stroke-dasharray: 1, 0;"></path></marker><marker id="container_flowchart-v2-crossStart" class="marker cross flowchart-v2" viewBox="0 0 11 11" refX="-1" refY="5.2" markerUnits="userSpaceOnUse" markerWidth="11" markerHeight="11" orient="auto"><path d="M 1,1 l 9,9 M 10,1 l -9,9" class="arrowMarkerPath" style="stroke-width: 2; stroke-dasharray: 1, 0;"></path></marker><g class="root"><g class="clusters"><g class="cluster" id="cloud_provider" data-look="classic"><rect style="" x="8" y="557.5517807006836" width="378.0078125" height="349.1489791870117"></rect><g class="cluster-label" transform="translate(115.80078125, 557.5517807006836)"><foreignObject width="162.40625" height="24"><div xmlns="http://www.w3.org/1999/xhtml" style="display: table-cell; white-space: nowrap; line-height: 1.5; max-width: 200px; text-align: center;"><span class="nodeLabel"><p>Ollama Cloud Provider</p></span></div></foreignObject></g></g><g class="cluster" id="backend_container" data-look="classic"><rect style="" x="406.0078125" y="121" width="571.19140625" height="561.4663848876953"></rect><g class="cluster-label" transform="translate(623.330078125, 121)"><foreignObject width="136.546875" height="24"><div xmlns="http://www.w3.org/1999/xhtml" style="display: table-cell; white-space: nowrap; line-height: 1.5; max-width: 200px; text-align: center;"><span class="nodeLabel"><p>Backend Container</p></span></div></foreignObject></g></g></g><g class="edgePaths"><path d="M730.457,47.5L730.374,53.583C730.29,59.667,730.124,71.833,730.04,84.083C729.957,96.333,729.957,108.667,729.957,118.333C729.957,128,729.957,135,729.957,138.5L729.957,142" id="L_User_UI_0" class="edge-thickness-normal edge-pattern-solid edge-thickness-normal edge-pattern-solid flowchart-link" style=";" data-edge="true" data-et="edge" data-id="L_User_UI_0" data-points="W3sieCI6NzMwLjQ1NzAzMTI1LCJ5Ijo0Ny41fSx7IngiOjcyOS45NTcwMzEyNSwieSI6ODR9LHsieCI6NzI5Ljk1NzAzMTI1LCJ5IjoxMjF9LHsieCI6NzI5Ljk1NzAzMTI1LCJ5IjoxNDZ9XQ==" marker-end="url(#container_flowchart-v2-pointEnd)"></path><path d="M729.957,200L729.957,206.167C729.957,212.333,729.957,224.667,729.957,236.333C729.957,248,729.957,259,729.957,264.5L729.957,270" id="L_UI_API_0" class="edge-thickness-normal edge-pattern-solid edge-thickness-normal edge-pattern-solid flowchart-link" style=";" data-edge="true" data-et="edge" data-id="L_UI_API_0" data-points="W3sieCI6NzI5Ljk1NzAzMTI1LCJ5IjoyMDB9LHsieCI6NzI5Ljk1NzAzMTI1LCJ5IjoyMzd9LHsieCI6NzI5Ljk1NzAzMTI1LCJ5IjoyNzR9XQ==" marker-end="url(#container_flowchart-v2-pointEnd)"></path><path d="M674.995,328L662.441,334.167C649.888,340.333,624.782,352.667,612.229,366.629C599.676,380.592,599.676,396.184,599.676,403.98L599.676,411.776" id="L_API_Gateway_0" class="edge-thickness-normal edge-pattern-solid edge-thickness-normal edge-pattern-solid flowchart-link" style=";" data-edge="true" data-et="edge" data-id="L_API_Gateway_0" data-points="W3sieCI6Njc0Ljk5NDYyODkwNjI1LCJ5IjozMjh9LHsieCI6NTk5LjY3NTc4MTI1LCJ5IjozNjV9LHsieCI6NTk5LjY3NTc4MTI1LCJ5Ijo0MTUuNzc1ODkwMzUwMzQxOH1d" marker-end="url(#container_flowchart-v2-pointEnd)"></path><path d="M604.893,469.776L606.528,478.239C608.163,486.701,611.433,503.626,613.068,518.256C614.703,532.885,614.703,545.218,614.703,554.885C614.703,564.552,614.703,571.552,614.703,575.052L614.703,578.552" id="L_Gateway_State_0" class="edge-thickness-normal edge-pattern-solid edge-thickness-normal edge-pattern-solid flowchart-link" style=";" data-edge="true" data-et="edge" data-id="L_Gateway_State_0" data-points="W3sieCI6NjA0Ljg5MjU0Mjg4OTQwMiwieSI6NDY5Ljc3NTg5MDM1MDM0MTh9LHsieCI6NjE0LjcwMzEyNSwieSI6NTIwLjU1MTc4MDcwMDY4MzZ9LHsieCI6NjE0LjcwMzEyNSwieSI6NTU3LjU1MTc4MDcwMDY4MzZ9LHsieCI6NjE0LjcwMzEyNSwieSI6NTgyLjU1MTc4MDcwMDY4MzZ9XQ==" marker-end="url(#container_flowchart-v2-pointEnd)"></path><path d="M677.777,469.776L702.256,478.239C726.735,486.701,775.694,503.626,800.173,518.256C824.652,532.885,824.652,545.218,824.652,556.628C824.652,568.038,824.652,578.523,824.652,583.766L824.652,589.009" id="L_Gateway_YAML_0" class="edge-thickness-normal edge-pattern-solid edge-thickness-normal edge-pattern-solid flowchart-link" style=";" data-edge="true" data-et="edge" data-id="L_Gateway_YAML_0" data-points="W3sieCI6Njc3Ljc3NjY4MzIxNTA5NDcsInkiOjQ2OS43NzU4OTAzNTAzNDE4fSx7IngiOjgyNC42NTIzNDM3NSwieSI6NTIwLjU1MTc4MDcwMDY4MzZ9LHsieCI6ODI0LjY1MjM0Mzc1LCJ5Ijo1NTcuNTUxNzgwNzAwNjgzNn0seyJ4Ijo4MjQuNjUyMzQzNzUsInkiOjU5My4wMDkwODI3OTQxODk1fV0=" marker-end="url(#container_flowchart-v2-pointEnd)"></path><path d="M778.58,328L789.685,334.167C800.79,340.333,823.001,352.667,834.106,364.333C845.211,376,845.211,387,845.211,392.5L845.211,398" id="L_API_DB_0" class="edge-thickness-normal edge-pattern-solid edge-thickness-normal edge-pattern-solid flowchart-link" style=";" data-edge="true" data-et="edge" data-id="L_API_DB_0" data-points="W3sieCI6Nzc4LjU3OTc3Mjk0OTIxODgsInkiOjMyOH0seyJ4Ijo4NDUuMjEwOTM3NSwieSI6MzY1fSx7IngiOjg0NS4yMTA5Mzc1LCJ5Ijo0MDJ9XQ==" marker-end="url(#container_flowchart-v2-pointEnd)"></path><path d="M556.964,469.776L543.577,478.239C530.19,486.701,503.415,503.626,490.028,518.256C476.641,532.885,476.641,545.218,441.05,558.277C405.459,571.335,334.277,585.119,298.686,592.011L263.095,598.903" id="L_Gateway_Engine_0" class="edge-thickness-normal edge-pattern-solid edge-thickness-normal edge-pattern-solid flowchart-link" style=";" data-edge="true" data-et="edge" data-id="L_Gateway_Engine_0" data-points="W3sieCI6NTU2Ljk2Mzk2OTA5NjA1MDIsInkiOjQ2OS43NzU4OTAzNTAzNDE4fSx7IngiOjQ3Ni42NDA2MjUsInkiOjUyMC41NTE3ODA3MDA2ODM2fSx7IngiOjQ3Ni42NDA2MjUsInkiOjU1Ny41NTE3ODA3MDA2ODM2fSx7IngiOjI1OS4xNjc5Njg3NSwieSI6NTk5LjY2MzI0MDg5MTkzNDJ9XQ==" marker-end="url(#container_flowchart-v2-pointEnd)"></path><path d="M138.425,647.009L134.995,652.919C131.565,658.828,124.704,670.647,121.274,682.724C117.844,694.8,117.844,707.133,117.844,723.119C117.844,739.104,117.844,758.742,117.844,768.561L117.844,778.38" id="L_Engine_Web_0" class="edge-thickness-normal edge-pattern-dotted edge-thickness-normal edge-pattern-solid flowchart-link" style=";" data-edge="true" data-et="edge" data-id="L_Engine_Web_0" data-points="W3sieCI6MTM4LjQyNTI2MTg5NTE0MDc1LCJ5Ijo2NDcuMDA5MDgyNzk0MTg5NX0seyJ4IjoxMTcuODQzNzUsInkiOjY4Mi40NjYzODQ4ODc2OTUzfSx7IngiOjExNy44NDM3NSwieSI6NzE5LjQ2NjM4NDg4NzY5NTN9LHsieCI6MTE3Ljg0Mzc1LCJ5Ijo3ODIuMzgwNDQ3Mzg3Njk1M31d" marker-end="url(#container_flowchart-v2-pointEnd)"></path><path d="M202.976,647.009L213.674,652.919C224.372,658.828,245.768,670.647,256.466,682.724C267.164,694.8,267.164,707.133,267.164,718.8C267.164,730.466,267.164,741.466,267.164,746.966L267.164,752.466" id="L_Engine_Model_0" class="edge-thickness-normal edge-pattern-solid edge-thickness-normal edge-pattern-solid flowchart-link" style=";" data-edge="true" data-et="edge" data-id="L_Engine_Model_0" data-points="W3sieCI6MjAyLjk3NTczNTYxNjU5ODU0LCJ5Ijo2NDcuMDA5MDgyNzk0MTg5NX0seyJ4IjoyNjcuMTY0MDYyNSwieSI6NjgyLjQ2NjM4NDg4NzY5NTN9LHsieCI6MjY3LjE2NDA2MjUsInkiOjcxOS40NjYzODQ4ODc2OTUzfSx7IngiOjI2Ny4xNjQwNjI1LCJ5Ijo3NTYuNDY2Mzg0ODg3Njk1M31d" marker-end="url(#container_flowchart-v2-pointEnd)"></path></g><g class="edgeLabels"><g class="edgeLabel" transform="translate(729.95703125, 84)"><g class="label" data-id="L_User_UI_0" transform="translate(-16.328125, -12)"><foreignObject width="32.65625" height="24"><div xmlns="http://www.w3.org/1999/xhtml" class="labelBkg" style="display: table-cell; white-space: nowrap; line-height: 1.5; max-width: 200px; text-align: center;"><span class="edgeLabel"><p>Chat</p></span></div></foreignObject></g></g><g class="edgeLabel" transform="translate(729.95703125, 237)"><g class="label" data-id="L_UI_API_0" transform="translate(-30.84375, -12)"><foreignObject width="61.6875" height="24"><div xmlns="http://www.w3.org/1999/xhtml" class="labelBkg" style="display: table-cell; white-space: nowrap; line-height: 1.5; max-width: 200px; text-align: center;"><span class="edgeLabel"><p>REST api</p></span></div></foreignObject></g></g><g class="edgeLabel" transform="translate(599.67578125, 365)"><g class="label" data-id="L_API_Gateway_0" transform="translate(-49.390625, -12)"><foreignObject width="98.78125" height="24"><div xmlns="http://www.w3.org/1999/xhtml" class="labelBkg" style="display: table-cell; white-space: nowrap; line-height: 1.5; max-width: 200px; text-align: center;"><span class="edgeLabel"><p>openclaw sdk</p></span></div></foreignObject></g></g><g class="edgeLabel" transform="translate(614.703125, 520.5517807006836)"><g class="label" data-id="L_Gateway_State_0" transform="translate(-67.4296875, -12)"><foreignObject width="134.859375" height="24"><div xmlns="http://www.w3.org/1999/xhtml" class="labelBkg" style="display: table-cell; white-space: nowrap; line-height: 1.5; max-width: 200px; text-align: center;"><span class="edgeLabel"><p>Persistent Memory</p></span></div></foreignObject></g></g><g class="edgeLabel" transform="translate(824.65234375, 520.5517807006836)"><g class="label" data-id="L_Gateway_YAML_0" transform="translate(-45.78125, -12)"><foreignObject width="91.5625" height="24"><div xmlns="http://www.w3.org/1999/xhtml" class="labelBkg" style="display: table-cell; white-space: nowrap; line-height: 1.5; max-width: 200px; text-align: center;"><span class="edgeLabel"><p>Reads config</p></span></div></foreignObject></g></g><g class="edgeLabel" transform="translate(845.2109375, 365)"><g class="label" data-id="L_API_DB_0" transform="translate(-47.6875, -12)"><foreignObject width="95.375" height="24"><div xmlns="http://www.w3.org/1999/xhtml" class="labelBkg" style="display: table-cell; white-space: nowrap; line-height: 1.5; max-width: 200px; text-align: center;"><span class="edgeLabel"><p>sqlite3 driver</p></span></div></foreignObject></g></g><g class="edgeLabel" transform="translate(476.640625, 520.5517807006836)"><g class="label" data-id="L_Gateway_Engine_0" transform="translate(-50.6328125, -12)"><foreignObject width="101.265625" height="24"><div xmlns="http://www.w3.org/1999/xhtml" class="labelBkg" style="display: table-cell; white-space: nowrap; line-height: 1.5; max-width: 200px; text-align: center;"><span class="edgeLabel"><p>HTTP API calls</p></span></div></foreignObject></g></g><g class="edgeLabel" transform="translate(117.84375, 719.4663848876953)"><g class="label" data-id="L_Engine_Web_0" transform="translate(-59.6171875, -12)"><foreignObject width="119.234375" height="24"><div xmlns="http://www.w3.org/1999/xhtml" class="labelBkg" style="display: table-cell; white-space: nowrap; line-height: 1.5; max-width: 200px; text-align: center;"><span class="edgeLabel"><p>Web Search Tool</p></span></div></foreignObject></g></g><g class="edgeLabel" transform="translate(267.1640625, 719.4663848876953)"><g class="label" data-id="L_Engine_Model_0" transform="translate(-31.71875, -12)"><foreignObject width="63.4375" height="24"><div xmlns="http://www.w3.org/1999/xhtml" class="labelBkg" style="display: table-cell; white-space: nowrap; line-height: 1.5; max-width: 200px; text-align: center;"><span class="edgeLabel"><p>Executes</p></span></div></foreignObject></g></g></g><g class="nodes"><g class="node default" id="flowchart-User-0" transform="translate(729.95703125, 27.5)"><g class="basic label-container outer-path"><path d="M-21.5 -19.5 C-11.786874025331217 -19.5, -2.0737480506624344 -19.5, 21.5 -19.5 C21.5 -19.5, 21.5 -19.5, 21.5 -19.5 C21.809316345394528 -19.49008082685094, 22.118632690789056 -19.48016165370188, 22.7493692896239 -19.45993515863156 C23.225835194650028 -19.413971065807775, 23.702301099676152 -19.368006972983995, 23.993604652847864 -19.3399052695533 C24.29801093361382 -19.290691222785025, 24.602417214379773 -19.24147717601675, 25.22759325967676 -19.140403561325776 C25.477661898575448 -19.083327026347522, 25.72773053747414 -19.026250491369268, 26.44626438623539 -18.862249829261074 C26.750623194003925 -18.771917732727356, 27.05498200177246 -18.68158563619364, 27.644610251460602 -18.50658706670804 C27.92006550807837 -18.405216985992222, 28.195520764696138 -18.303846905276405, 28.817706595147794 -18.074876768247425 C29.088117222799013 -17.955174004832497, 29.358527850450233 -17.83547124141757, 29.96073291279238 -17.568892924097174 C30.372979487913522 -17.35382414991301, 30.785226063034667 -17.13875537572884, 31.068992264076783 -16.990714730406097 C31.413293288809086 -16.781997425875964, 31.75759431354139 -16.573280121345835, 32.1379305736057 -16.342718045390892 C32.51428072354103 -16.080192472731422, 32.89063087347635 -15.81766690007195, 33.16315534457871 -15.627565626425154 C33.37600080991817 -15.457827031872645, 33.58884627525762 -15.288088437320136, 34.140453708501866 -14.848196188198123 C34.41887519750286 -14.59534115851635, 34.69729668650384 -14.342486128834574, 35.06580973676799 -14.007812326905688 C35.295722028223615 -13.77040900982758, 35.525634319679234 -13.53300569274947, 35.93542094296865 -13.10986736009568 C36.22547809759025 -12.769149721557497, 36.51553525221184 -12.428432083019313, 36.74571390812658 -12.158051136245305 C37.04285489338185 -11.759909286103882, 37.33999587863712 -11.361767435962461, 37.493358964640635 -11.156274872382312 C37.727146447013936 -10.797114518727769, 37.960933929387245 -10.437954165073226, 38.17528387860425 -10.108655082055241 C38.39462593816897 -9.719191044506092, 38.613967997733695 -9.32972700695694, 38.788686474273504 -9.019496659696287 C38.97199848503933 -8.638845347092353, 39.15531049580515 -8.258194034488419, 39.33104614880834 -7.893275190886684 C39.48168172252879 -7.521202411456481, 39.63231729624924 -7.149129632026279, 39.800134229970325 -6.734618561215508 C39.91747362209023 -6.381211007643589, 40.03481301421014 -6.02780345407167, 40.19402313421488 -5.548287939305138 C40.27283255136686 -5.2477534754871815, 40.35164196851884 -4.947219011669226, 40.51109428754556 -4.339158212148133 C40.59462745652929 -3.9102330441581876, 40.67816062551302 -3.481307876168242, 40.750044776581774 -3.1121979531509023 C40.796290796240655 -2.753522956986155, 40.842536815899535 -2.3948479608214077, 40.90989270250937 -1.872449005199798 C40.935604898101 -1.4719608043494892, 40.96131709369262 -1.0714726034991804, 40.98998121591342 -0.6250057626472757 C40.98998121591342 -0.29715263819907256, 40.98998121591342 0.030700486249130576, 40.98998121591342 0.625005762647271 C40.96020193993465 1.0888420234155445, 40.93042266395587 1.5526782841838178, 40.90989270250937 1.8724490051997846 C40.8466443326298 2.3629908721823507, 40.78339596275024 2.8535327391649172, 40.750044776581774 3.1121979531508885 C40.66936140527832 3.52649001235756, 40.58867803397487 3.9407820715642323, 40.51109428754556 4.339158212148129 C40.38987616062468 4.8014154663659845, 40.2686580337038 5.263672720583841, 40.19402313421489 5.548287939305125 C40.09587620715502 5.8438908460202335, 39.99772928009516 6.1394937527353415, 39.800134229970325 6.734618561215495 C39.63220669719131 7.149402813837641, 39.4642791644123 7.564187066459788, 39.33104614880834 7.893275190886679 C39.15521216954658 8.258398211068178, 38.97937819028483 8.623521231249676, 38.788686474273504 9.019496659696284 C38.59728810576693 9.35934384416614, 38.40588973726035 9.699191028636, 38.17528387860425 10.108655082055236 C37.998990648977454 10.379488824122566, 37.82269741935065 10.650322566189894, 37.49335896464064 11.156274872382301 C37.281318275554774 11.440390078453195, 37.06927758646891 11.72450528452409, 36.74571390812658 12.158051136245302 C36.45634115929702 12.497964832796368, 36.16696841046746 12.837878529347437, 35.93542094296866 13.10986736009567 C35.63129400030369 13.423903397683608, 35.327167057638725 13.737939435271544, 35.06580973676799 14.007812326905684 C34.793978453158324 14.254682306418342, 34.52214716954866 14.501552285931, 34.14045370850189 14.848196188198111 C33.76782048791526 15.145361265429493, 33.39518726732863 15.442526342660873, 33.16315534457871 15.627565626425152 C32.76839482433194 15.902933476441802, 32.37363430408518 16.178301326458453, 32.13793057360571 16.34271804539089 C31.737820916763937 16.585266870673706, 31.337711259922166 16.82781569595652, 31.068992264076787 16.990714730406093 C30.800248071911515 17.130918403319846, 30.53150387974624 17.2711220762336, 29.960732912792388 17.56889292409717 C29.57369884589922 17.740221424553102, 29.18666477900605 17.91154992500903, 28.817706595147804 18.07487676824742 C28.58171128147309 18.16172522519648, 28.345715967798377 18.24857368214554, 27.644610251460616 18.506587066708033 C27.257681681894194 18.62142543512584, 26.870753112327773 18.73626380354365, 26.446264386235413 18.86224982926107 C25.960361084273753 18.973154087118445, 25.474457782312093 19.08405834497582, 25.227593259676766 19.140403561325773 C24.802477612963724 19.209132962265258, 24.37736196625068 19.277862363204747, 23.99360465284788 19.3399052695533 C23.54636178917707 19.383050250723382, 23.09911892550626 19.426195231893466, 22.7493692896239 19.45993515863156 C22.2939155470296 19.47454067366963, 21.838461804435298 19.489146188707696, 21.500000000000004 19.5 C21.500000000000004 19.5, 21.5 19.5, 21.5 19.5 C11.224047301075682 19.5, 0.9480946021513645 19.5, -21.499999999999996 19.5 C-21.954765198540045 19.48541656522958, -22.40953039708009 19.470833130459162, -22.749369289623893 19.45993515863156 C-23.244887730381798 19.41213309059976, -23.740406171139703 19.36433102256796, -23.99360465284787 19.3399052695533 C-24.350336857324177 19.282231573233133, -24.707069061800485 19.224557876912968, -25.22759325967676 19.140403561325773 C-25.489942727764213 19.080524007225083, -25.752292195851666 19.020644453124397, -26.446264386235388 18.862249829261074 C-26.74803665339268 18.772685404403745, -27.049808920549975 18.683120979546416, -27.64461025146059 18.506587066708043 C-27.98261737937143 18.382197319133216, -28.320624507282265 18.257807571558388, -28.817706595147797 18.074876768247425 C-29.24187004945225 17.887112189388663, -29.6660335037567 17.6993476105299, -29.96073291279238 17.568892924097174 C-30.306291719638402 17.388615115906585, -30.651850526484424 17.208337307715993, -31.06899226407678 16.990714730406097 C-31.297182391885922 16.852384533934156, -31.52537251969507 16.714054337462212, -32.137930573605686 16.3427180453909 C-32.517626539146804 16.07785857660285, -32.89732250468792 15.812999107814802, -33.16315534457871 15.627565626425156 C-33.41225818501852 15.428912740079383, -33.66136102545834 15.230259853733612, -34.140453708501866 14.848196188198125 C-34.4176343813419 14.596468034923532, -34.69481505418193 14.34473988164894, -35.065809736767974 14.007812326905697 C-35.29661163029554 13.769490422650627, -35.52741352382309 13.531168518395555, -35.935420942968655 13.109867360095677 C-36.11596862300222 12.897785781674228, -36.29651630303577 12.685704203252781, -36.745713908126575 12.158051136245307 C-36.917297554424756 11.928144681797496, -37.08888120072294 11.698238227349686, -37.493358964640635 11.156274872382316 C-37.69363029448677 10.848604329356624, -37.89390162433291 10.54093378633093, -38.17528387860425 10.108655082055249 C-38.4170364336521 9.679398940467053, -38.65878898869996 9.250142798878858, -38.788686474273504 9.019496659696289 C-38.934111585295796 8.717518305059599, -39.07953669631808 8.41553995042291, -39.33104614880834 7.893275190886686 C-39.437886446566466 7.629377589807488, -39.544726744324585 7.36547998872829, -39.800134229970325 6.73461856121551 C-39.95654378401952 6.263537904897493, -40.11295333806872 5.792457248579477, -40.19402313421488 5.5482879393051325 C-40.302578848392855 5.134317952800382, -40.41113456257083 4.7203479662956305, -40.51109428754556 4.339158212148136 C-40.595167834536255 3.9074583173013657, -40.67924138152695 3.475758422454595, -40.750044776581774 3.112197953150904 C-40.80174788898364 2.711198823296408, -40.85345100138551 2.310199693441912, -40.90989270250937 1.872449005199809 C-40.93668653913401 1.4551133721754148, -40.96348037575864 1.0377777391510206, -40.98998121591342 0.6250057626472781 C-40.98998121591342 0.2535428132887061, -40.98998121591342 -0.11792013606986596, -40.98998121591342 -0.6250057626472687 C-40.963886900559274 -1.031445787240312, -40.93779258520513 -1.4378858118333553, -40.90989270250937 -1.8724490051997822 C-40.860294779942194 -2.257120698413143, -40.81069685737503 -2.6417923916265034, -40.750044776581774 -3.112197953150895 C-40.69616434589503 -3.388862577094292, -40.642283915208274 -3.6655272010376887, -40.51109428754556 -4.339158212148126 C-40.40969153984032 -4.7258508373770765, -40.30828879213508 -5.112543462606026, -40.19402313421489 -5.548287939305123 C-40.067294573400886 -5.929974173022776, -39.940566012586885 -6.311660406740429, -39.80013422997033 -6.734618561215485 C-39.69661902796472 -6.990303111499618, -39.59310382595911 -7.245987661783751, -39.33104614880834 -7.893275190886676 C-39.22110288658114 -8.121574727310419, -39.111159624353945 -8.349874263734163, -38.788686474273504 -9.019496659696282 C-38.59617463818438 -9.361320918609772, -38.40366280209526 -9.703145177523263, -38.17528387860425 -10.108655082055243 C-37.96944558569522 -10.42487797528443, -37.7636072927862 -10.741100868513616, -37.49335896464064 -11.156274872382308 C-37.267785179061086 -11.458523194864293, -37.04221139348152 -11.76077151734628, -36.74571390812659 -12.158051136245302 C-36.444905950350154 -12.511397279907188, -36.14409799257371 -12.864743423569076, -35.93542094296866 -13.10986736009567 C-35.672647404875 -13.381202612286074, -35.40987386678134 -13.652537864476479, -35.065809736767996 -14.007812326905677 C-34.70638803826425 -14.334229603709755, -34.346966339760506 -14.660646880513834, -34.14045370850189 -14.848196188198107 C-33.872651593917915 -15.061761248065261, -33.60484947933395 -15.275326307932414, -33.16315534457872 -15.627565626425149 C-32.75517698582753 -15.912153668391477, -32.34719862707634 -16.196741710357806, -32.137930573605715 -16.342718045390885 C-31.79913712599469 -16.54809662430398, -31.460343678383662 -16.75347520321708, -31.06899226407679 -16.99071473040609 C-30.829441572223487 -17.115688172906417, -30.589890880370184 -17.240661615406744, -29.960732912792388 -17.56889292409717 C-29.594352717803133 -17.731078568136578, -29.22797252281388 -17.89326421217599, -28.817706595147804 -18.07487676824742 C-28.489515211710568 -18.195654231120216, -28.161323828273336 -18.31643169399301, -27.64461025146062 -18.506587066708033 C-27.251796194708493 -18.623172216829005, -26.858982137956367 -18.739757366949974, -26.446264386235413 -18.862249829261067 C-25.96374949140177 -18.972380705302896, -25.481234596568125 -19.082511581344725, -25.227593259676766 -19.140403561325773 C-24.830683451192442 -19.20457286107998, -24.43377364270812 -19.268742160834194, -23.993604652847882 -19.3399052695533 C-23.5730070957527 -19.380479810043703, -23.15240953865752 -19.421054350534103, -22.749369289623903 -19.45993515863156 C-22.348660291384018 -19.472785116272362, -21.947951293144133 -19.485635073913166, -21.500000000000007 -19.5 C-21.500000000000004 -19.5, -21.500000000000004 -19.5, -21.5 -19.5" stroke="none" stroke-width="0" fill="#ECECFF" style=""></path><path d="M-21.5 -19.5 C-8.543890516745577 -19.5, 4.412218966508846 -19.5, 21.5 -19.5 M-21.5 -19.5 C-7.448283105237294 -19.5, 6.603433789525411 -19.5, 21.5 -19.5 M21.5 -19.5 C21.5 -19.5, 21.5 -19.5, 21.5 -19.5 M21.5 -19.5 C21.5 -19.5, 21.5 -19.5, 21.5 -19.5 M21.5 -19.5 C21.998597253879517 -19.484010956528763, 22.497194507759037 -19.46802191305753, 22.7493692896239 -19.45993515863156 M21.5 -19.5 C21.938136965331744 -19.48594980030368, 22.376273930663487 -19.471899600607358, 22.7493692896239 -19.45993515863156 M22.7493692896239 -19.45993515863156 C23.217496002792437 -19.414775537616933, 23.685622715960978 -19.369615916602307, 23.993604652847864 -19.3399052695533 M22.7493692896239 -19.45993515863156 C23.08799278836812 -19.427268556962044, 23.426616287112342 -19.39460195529253, 23.993604652847864 -19.3399052695533 M23.993604652847864 -19.3399052695533 C24.30844131444765 -19.289004919700623, 24.623277976047433 -19.238104569847945, 25.22759325967676 -19.140403561325776 M23.993604652847864 -19.3399052695533 C24.458535737858117 -19.264738817323256, 24.923466822868367 -19.189572365093213, 25.22759325967676 -19.140403561325776 M25.22759325967676 -19.140403561325776 C25.61820494082077 -19.051248994084087, 26.008816621964783 -18.962094426842402, 26.44626438623539 -18.862249829261074 M25.22759325967676 -19.140403561325776 C25.513091622220127 -19.07524042312618, 25.7985899847635 -19.01007728492658, 26.44626438623539 -18.862249829261074 M26.44626438623539 -18.862249829261074 C26.844430021448755 -18.74407635874382, 27.242595656662118 -18.62590288822656, 27.644610251460602 -18.50658706670804 M26.44626438623539 -18.862249829261074 C26.872413380273642 -18.73577104473224, 27.298562374311892 -18.609292260203404, 27.644610251460602 -18.50658706670804 M27.644610251460602 -18.50658706670804 C27.942356823563482 -18.39701357583504, 28.24010339566636 -18.28744008496204, 28.817706595147794 -18.074876768247425 M27.644610251460602 -18.50658706670804 C27.975990478001567 -18.38463608009573, 28.30737070454253 -18.26268509348342, 28.817706595147794 -18.074876768247425 M28.817706595147794 -18.074876768247425 C29.129881130214027 -17.936686361902165, 29.44205566528026 -17.79849595555691, 29.96073291279238 -17.568892924097174 M28.817706595147794 -18.074876768247425 C29.109685091019408 -17.945626549359407, 29.401663586891026 -17.81637633047139, 29.96073291279238 -17.568892924097174 M29.96073291279238 -17.568892924097174 C30.272143650304834 -17.406430141805025, 30.583554387817287 -17.243967359512876, 31.068992264076783 -16.990714730406097 M29.96073291279238 -17.568892924097174 C30.20783173024368 -17.439981629307177, 30.454930547694982 -17.311070334517183, 31.068992264076783 -16.990714730406097 M31.068992264076783 -16.990714730406097 C31.44774015632495 -16.761115532355586, 31.826488048573122 -16.531516334305074, 32.1379305736057 -16.342718045390892 M31.068992264076783 -16.990714730406097 C31.369657354606233 -16.808449785622948, 31.670322445135685 -16.626184840839798, 32.1379305736057 -16.342718045390892 M32.1379305736057 -16.342718045390892 C32.477873803373136 -16.10558836421037, 32.817817033140564 -15.868458683029845, 33.16315534457871 -15.627565626425154 M32.1379305736057 -16.342718045390892 C32.43586915108932 -16.13488899129147, 32.733807728572934 -15.927059937192043, 33.16315534457871 -15.627565626425154 M33.16315534457871 -15.627565626425154 C33.42171471093214 -15.421371412311998, 33.68027407728557 -15.215177198198843, 34.140453708501866 -14.848196188198123 M33.16315534457871 -15.627565626425154 C33.54229292806816 -15.32521349286714, 33.921430511557595 -15.022861359309129, 34.140453708501866 -14.848196188198123 M34.140453708501866 -14.848196188198123 C34.48161037615115 -14.538366729149836, 34.82276704380043 -14.228537270101546, 35.06580973676799 -14.007812326905688 M34.140453708501866 -14.848196188198123 C34.484822346870025 -14.53544970232704, 34.829190985238185 -14.222703216455958, 35.06580973676799 -14.007812326905688 M35.06580973676799 -14.007812326905688 C35.33313723279723 -13.731774739259894, 35.600464728826466 -13.455737151614102, 35.93542094296865 -13.10986736009568 M35.06580973676799 -14.007812326905688 C35.302146420399204 -13.763775297453876, 35.53848310403041 -13.519738268002062, 35.93542094296865 -13.10986736009568 M35.93542094296865 -13.10986736009568 C36.25172413535185 -12.738319632160863, 36.568027327735045 -12.366771904226047, 36.74571390812658 -12.158051136245305 M35.93542094296865 -13.10986736009568 C36.176044278453965 -12.827217498378968, 36.41666761393928 -12.544567636662256, 36.74571390812658 -12.158051136245305 M36.74571390812658 -12.158051136245305 C36.940447164004624 -11.897126313933294, 37.135180419882666 -11.636201491621284, 37.493358964640635 -11.156274872382312 M36.74571390812658 -12.158051136245305 C36.92020722820433 -11.924245984009598, 37.09470054828209 -11.690440831773891, 37.493358964640635 -11.156274872382312 M37.493358964640635 -11.156274872382312 C37.662760965891245 -10.896027907654728, 37.832162967141855 -10.635780942927143, 38.17528387860425 -10.108655082055241 M37.493358964640635 -11.156274872382312 C37.72410494796053 -10.801787078030669, 37.95485093128041 -10.447299283679024, 38.17528387860425 -10.108655082055241 M38.17528387860425 -10.108655082055241 C38.39197696998056 -9.723894555761728, 38.608670061356875 -9.339134029468214, 38.788686474273504 -9.019496659696287 M38.17528387860425 -10.108655082055241 C38.38882519757151 -9.729490846825565, 38.60236651653877 -9.350326611595888, 38.788686474273504 -9.019496659696287 M38.788686474273504 -9.019496659696287 C38.978996079970315 -8.624314691493614, 39.169305685667126 -8.229132723290942, 39.33104614880834 -7.893275190886684 M38.788686474273504 -9.019496659696287 C38.99382496526456 -8.593522193892795, 39.19896345625561 -8.167547728089305, 39.33104614880834 -7.893275190886684 M39.33104614880834 -7.893275190886684 C39.46667694018038 -7.558264513954793, 39.602307731552415 -7.223253837022901, 39.800134229970325 -6.734618561215508 M39.33104614880834 -7.893275190886684 C39.44917407666718 -7.601496925227249, 39.567302004526006 -7.309718659567812, 39.800134229970325 -6.734618561215508 M39.800134229970325 -6.734618561215508 C39.956218303475794 -6.264518200436931, 40.112302376981255 -5.794417839658354, 40.19402313421488 -5.548287939305138 M39.800134229970325 -6.734618561215508 C39.94538782204712 -6.297137884897215, 40.090641414123915 -5.859657208578922, 40.19402313421488 -5.548287939305138 M40.19402313421488 -5.548287939305138 C40.31511359082914 -5.086517547299087, 40.436204047443404 -4.6247471552930355, 40.51109428754556 -4.339158212148133 M40.19402313421488 -5.548287939305138 C40.268539026989416 -5.264126544763605, 40.34305491976396 -4.979965150222073, 40.51109428754556 -4.339158212148133 M40.51109428754556 -4.339158212148133 C40.562556159070134 -4.074912378339855, 40.6140180305947 -3.810666544531577, 40.750044776581774 -3.1121979531509023 M40.51109428754556 -4.339158212148133 C40.56919894867872 -4.0408030576538625, 40.62730360981187 -3.742447903159591, 40.750044776581774 -3.1121979531509023 M40.750044776581774 -3.1121979531509023 C40.78457178865961 -2.8444132656049383, 40.81909880073744 -2.576628578058974, 40.90989270250937 -1.872449005199798 M40.750044776581774 -3.1121979531509023 C40.787879107131346 -2.8187623566420292, 40.825713437680925 -2.5253267601331566, 40.90989270250937 -1.872449005199798 M40.90989270250937 -1.872449005199798 C40.93455728688664 -1.488278194629676, 40.95922187126391 -1.1041073840595539, 40.98998121591342 -0.6250057626472757 M40.90989270250937 -1.872449005199798 C40.92767341934971 -1.5954999880751743, 40.94545413619005 -1.3185509709505505, 40.98998121591342 -0.6250057626472757 M40.98998121591342 -0.6250057626472757 C40.98998121591342 -0.307271898182012, 40.98998121591342 0.010461966283251689, 40.98998121591342 0.625005762647271 M40.98998121591342 -0.6250057626472757 C40.98998121591342 -0.18988028044455296, 40.98998121591342 0.24524520175816977, 40.98998121591342 0.625005762647271 M40.98998121591342 0.625005762647271 C40.963147847345574 1.0429571375966475, 40.93631447877774 1.4609085125460242, 40.90989270250937 1.8724490051997846 M40.98998121591342 0.625005762647271 C40.97286850775703 0.8915500053124203, 40.95575579960064 1.1580942479775695, 40.90989270250937 1.8724490051997846 M40.90989270250937 1.8724490051997846 C40.86083599040964 2.2529231769017413, 40.81177927830991 2.633397348603698, 40.750044776581774 3.1121979531508885 M40.90989270250937 1.8724490051997846 C40.873598070087596 2.153943007077178, 40.83730343766583 2.435437008954571, 40.750044776581774 3.1121979531508885 M40.750044776581774 3.1121979531508885 C40.68632542545894 3.439383354077008, 40.62260607433611 3.7665687550031275, 40.51109428754556 4.339158212148129 M40.750044776581774 3.1121979531508885 C40.6642589368609 3.5526901092739656, 40.57847309714002 3.9931822653970426, 40.51109428754556 4.339158212148129 M40.51109428754556 4.339158212148129 C40.44180162291167 4.6034011740279865, 40.37250895827778 4.8676441359078435, 40.19402313421489 5.548287939305125 M40.51109428754556 4.339158212148129 C40.41736271977892 4.696597303560765, 40.32363115201228 5.0540363949734015, 40.19402313421489 5.548287939305125 M40.19402313421489 5.548287939305125 C40.03664691606161 6.022280033887603, 39.87927069790834 6.496272128470082, 39.800134229970325 6.734618561215495 M40.19402313421489 5.548287939305125 C40.08216389994822 5.885190130567671, 39.970304665681546 6.222092321830217, 39.800134229970325 6.734618561215495 M39.800134229970325 6.734618561215495 C39.63334533872138 7.146590347244234, 39.466556447472435 7.558562133272972, 39.33104614880834 7.893275190886679 M39.800134229970325 6.734618561215495 C39.69391400685504 6.996984565938562, 39.58769378373975 7.2593505706616295, 39.33104614880834 7.893275190886679 M39.33104614880834 7.893275190886679 C39.15157743919336 8.265945806417418, 38.97210872957838 8.638616421948157, 38.788686474273504 9.019496659696284 M39.33104614880834 7.893275190886679 C39.116402050547784 8.338988253572706, 38.90175795228723 8.784701316258735, 38.788686474273504 9.019496659696284 M38.788686474273504 9.019496659696284 C38.54827979157725 9.446363068639851, 38.307873108881004 9.873229477583418, 38.17528387860425 10.108655082055236 M38.788686474273504 9.019496659696284 C38.64491451668707 9.274778328880382, 38.50114255910062 9.530059998064479, 38.17528387860425 10.108655082055236 M38.17528387860425 10.108655082055236 C38.021803546256024 10.344442087782017, 37.86832321390781 10.580229093508796, 37.49335896464064 11.156274872382301 M38.17528387860425 10.108655082055236 C37.97326042124508 10.419017363453056, 37.77123696388592 10.729379644850876, 37.49335896464064 11.156274872382301 M37.49335896464064 11.156274872382301 C37.31872447193224 11.390269183081987, 37.144089979223835 11.62426349378167, 36.74571390812658 12.158051136245302 M37.49335896464064 11.156274872382301 C37.25668341629259 11.473398545582674, 37.020007867944535 11.790522218783048, 36.74571390812658 12.158051136245302 M36.74571390812658 12.158051136245302 C36.540204067988746 12.39945468831238, 36.33469422785091 12.640858240379458, 35.93542094296866 13.10986736009567 M36.74571390812658 12.158051136245302 C36.516113576771254 12.427752750084233, 36.286513245415925 12.697454363923162, 35.93542094296866 13.10986736009567 M35.93542094296866 13.10986736009567 C35.685722442408284 13.367701562552414, 35.43602394184791 13.625535765009158, 35.06580973676799 14.007812326905684 M35.93542094296866 13.10986736009567 C35.72118086284401 13.331087832262071, 35.506940782719354 13.552308304428472, 35.06580973676799 14.007812326905684 M35.06580973676799 14.007812326905684 C34.79270359998144 14.255840094342826, 34.519597463194884 14.503867861779968, 34.14045370850189 14.848196188198111 M35.06580973676799 14.007812326905684 C34.84916327975585 14.204564907012973, 34.6325168227437 14.40131748712026, 34.14045370850189 14.848196188198111 M34.14045370850189 14.848196188198111 C33.7606005185943 15.151118998831503, 33.38074732868672 15.454041809464893, 33.16315534457871 15.627565626425152 M34.14045370850189 14.848196188198111 C33.90310350405652 15.037476660089089, 33.665753299611154 15.226757131980067, 33.16315534457871 15.627565626425152 M33.16315534457871 15.627565626425152 C32.820993483403896 15.86624292883246, 32.47883162222909 16.104920231239767, 32.13793057360571 16.34271804539089 M33.16315534457871 15.627565626425152 C32.80481608332323 15.87752758282037, 32.44647682206775 16.12748953921559, 32.13793057360571 16.34271804539089 M32.13793057360571 16.34271804539089 C31.911525592512497 16.479966075432944, 31.685120611419283 16.617214105475004, 31.068992264076787 16.990714730406093 M32.13793057360571 16.34271804539089 C31.84163471786049 16.52233433437136, 31.545338862115273 16.701950623351834, 31.068992264076787 16.990714730406093 M31.068992264076787 16.990714730406093 C30.815480326094875 17.122971746069112, 30.56196838811296 17.25522876173213, 29.960732912792388 17.56889292409717 M31.068992264076787 16.990714730406093 C30.641553054916432 17.21370949203717, 30.214113845756078 17.436704253668246, 29.960732912792388 17.56889292409717 M29.960732912792388 17.56889292409717 C29.617258816734424 17.720938717624982, 29.27378472067646 17.87298451115279, 28.817706595147804 18.07487676824742 M29.960732912792388 17.56889292409717 C29.610558321870457 17.72390482793814, 29.26038373094853 17.87891673177911, 28.817706595147804 18.07487676824742 M28.817706595147804 18.07487676824742 C28.435372614979425 18.215579207205952, 28.05303863481105 18.356281646164486, 27.644610251460616 18.506587066708033 M28.817706595147804 18.07487676824742 C28.49107165325367 18.195081446244767, 28.16443671135953 18.31528612424211, 27.644610251460616 18.506587066708033 M27.644610251460616 18.506587066708033 C27.196660619503366 18.639536166137347, 26.74871098754611 18.77248526556666, 26.446264386235413 18.86224982926107 M27.644610251460616 18.506587066708033 C27.295658420211435 18.61015413853725, 26.946706588962257 18.71372121036647, 26.446264386235413 18.86224982926107 M26.446264386235413 18.86224982926107 C26.129132967366733 18.934633006141937, 25.812001548498056 19.0070161830228, 25.227593259676766 19.140403561325773 M26.446264386235413 18.86224982926107 C25.969538415597775 18.97105942113142, 25.492812444960137 19.079869013001773, 25.227593259676766 19.140403561325773 M25.227593259676766 19.140403561325773 C24.954575828036397 19.184542902391584, 24.681558396396028 19.228682243457396, 23.99360465284788 19.3399052695533 M25.227593259676766 19.140403561325773 C24.954137689647702 19.184613737208455, 24.68068211961864 19.228823913091134, 23.99360465284788 19.3399052695533 M23.99360465284788 19.3399052695533 C23.606107311780416 19.377286672012342, 23.21860997071295 19.414668074471383, 22.7493692896239 19.45993515863156 M23.99360465284788 19.3399052695533 C23.561141157132983 19.381624502871468, 23.128677661418088 19.423343736189633, 22.7493692896239 19.45993515863156 M22.7493692896239 19.45993515863156 C22.435853412764086 19.469989002580817, 22.122337535904272 19.48004284653008, 21.500000000000004 19.5 M22.7493692896239 19.45993515863156 C22.30965021246699 19.474036093574718, 21.869931135310082 19.48813702851788, 21.500000000000004 19.5 M21.500000000000004 19.5 C21.500000000000004 19.5, 21.5 19.5, 21.5 19.5 M21.500000000000004 19.5 C21.500000000000004 19.5, 21.5 19.5, 21.5 19.5 M21.5 19.5 C8.030041505359183 19.5, -5.439916989281635 19.5, -21.499999999999996 19.5 M21.5 19.5 C5.5979826569748425 19.5, -10.304034686050315 19.5, -21.499999999999996 19.5 M-21.499999999999996 19.5 C-21.931147552914684 19.48617393715583, -22.362295105829368 19.472347874311655, -22.749369289623893 19.45993515863156 M-21.499999999999996 19.5 C-21.940200068282394 19.48588364060764, -22.380400136564788 19.471767281215275, -22.749369289623893 19.45993515863156 M-22.749369289623893 19.45993515863156 C-23.04685122162014 19.431237434426247, -23.34433315361639 19.40253971022094, -23.99360465284787 19.3399052695533 M-22.749369289623893 19.45993515863156 C-23.041705270761966 19.431733858116626, -23.33404125190004 19.403532557601693, -23.99360465284787 19.3399052695533 M-23.99360465284787 19.3399052695533 C-24.352715308017153 19.281847043770252, -24.71182596318643 19.223788817987206, -25.22759325967676 19.140403561325773 M-23.99360465284787 19.3399052695533 C-24.35391393197216 19.281653259544676, -24.71422321109645 19.22340124953605, -25.22759325967676 19.140403561325773 M-25.22759325967676 19.140403561325773 C-25.65208871663299 19.04351524336725, -26.076584173589215 18.946626925408726, -26.446264386235388 18.862249829261074 M-25.22759325967676 19.140403561325773 C-25.620762107482733 19.050665337480567, -26.013930955288707 18.960927113635357, -26.446264386235388 18.862249829261074 M-26.446264386235388 18.862249829261074 C-26.73699603690232 18.775962201424704, -27.02772768756925 18.689674573588338, -27.64461025146059 18.506587066708043 M-26.446264386235388 18.862249829261074 C-26.82543086422985 18.749715208877777, -27.204597342224314 18.637180588494477, -27.64461025146059 18.506587066708043 M-27.64461025146059 18.506587066708043 C-27.93951169471621 18.398060609550917, -28.23441313797183 18.28953415239379, -28.817706595147797 18.074876768247425 M-27.64461025146059 18.506587066708043 C-28.052563564252203 18.356456476521647, -28.460516877043815 18.20632588633525, -28.817706595147797 18.074876768247425 M-28.817706595147797 18.074876768247425 C-29.21079109107055 17.900869922339698, -29.603875586993304 17.726863076431968, -29.96073291279238 17.568892924097174 M-28.817706595147797 18.074876768247425 C-29.108304576718957 17.946237662088716, -29.398902558290118 17.817598555930008, -29.96073291279238 17.568892924097174 M-29.96073291279238 17.568892924097174 C-30.2549062650682 17.415422874641905, -30.54907961734402 17.261952825186633, -31.06899226407678 16.990714730406097 M-29.96073291279238 17.568892924097174 C-30.263700833695452 17.410834753822257, -30.566668754598524 17.25277658354734, -31.06899226407678 16.990714730406097 M-31.06899226407678 16.990714730406097 C-31.390885798860854 16.79558097796361, -31.712779333644928 16.600447225521123, -32.137930573605686 16.3427180453909 M-31.06899226407678 16.990714730406097 C-31.366809455765356 16.8101761986364, -31.66462664745393 16.6296376668667, -32.137930573605686 16.3427180453909 M-32.137930573605686 16.3427180453909 C-32.39878304550526 16.16075865311527, -32.65963551740484 15.978799260839638, -33.16315534457871 15.627565626425156 M-32.137930573605686 16.3427180453909 C-32.51969467545329 16.076415934243624, -32.90145877730089 15.810113823096351, -33.16315534457871 15.627565626425156 M-33.16315534457871 15.627565626425156 C-33.47745729324328 15.376918186291276, -33.791759241907855 15.126270746157397, -34.140453708501866 14.848196188198125 M-33.16315534457871 15.627565626425156 C-33.466027496230936 15.386033145248948, -33.76889964788317 15.14450066407274, -34.140453708501866 14.848196188198125 M-34.140453708501866 14.848196188198125 C-34.37959890447798 14.631010848647774, -34.61874410045409 14.413825509097421, -35.065809736767974 14.007812326905697 M-34.140453708501866 14.848196188198125 C-34.484393249742624 14.535839396984858, -34.82833279098338 14.223482605771594, -35.065809736767974 14.007812326905697 M-35.065809736767974 14.007812326905697 C-35.40728403327267 13.65521208020347, -35.74875832977736 13.30261183350124, -35.935420942968655 13.109867360095677 M-35.065809736767974 14.007812326905697 C-35.293636121542725 13.772562879731714, -35.52146250631748 13.537313432557731, -35.935420942968655 13.109867360095677 M-35.935420942968655 13.109867360095677 C-36.247482247104706 12.743302395466236, -36.55954355124076 12.376737430836794, -36.745713908126575 12.158051136245307 M-35.935420942968655 13.109867360095677 C-36.13604088509818 12.874207760472233, -36.33666082722772 12.638548160848789, -36.745713908126575 12.158051136245307 M-36.745713908126575 12.158051136245307 C-37.037635144271015 11.766903274383473, -37.329556380415454 11.375755412521642, -37.493358964640635 11.156274872382316 M-36.745713908126575 12.158051136245307 C-36.908310073087826 11.940187088012587, -37.070906238049076 11.722323039779868, -37.493358964640635 11.156274872382316 M-37.493358964640635 11.156274872382316 C-37.73954446833637 10.778067828641644, -37.985729972032104 10.399860784900971, -38.17528387860425 10.108655082055249 M-37.493358964640635 11.156274872382316 C-37.71504934516573 10.8156989156933, -37.936739725690835 10.475122959004283, -38.17528387860425 10.108655082055249 M-38.17528387860425 10.108655082055249 C-38.35159022910292 9.795605303790959, -38.527896579601595 9.482555525526667, -38.788686474273504 9.019496659696289 M-38.17528387860425 10.108655082055249 C-38.36635901007938 9.769381837666018, -38.55743414155451 9.430108593276788, -38.788686474273504 9.019496659696289 M-38.788686474273504 9.019496659696289 C-38.9077470799184 8.772264764585799, -39.0268076855633 8.525032869475309, -39.33104614880834 7.893275190886686 M-38.788686474273504 9.019496659696289 C-38.99861732784962 8.583570750444787, -39.20854818142573 8.147644841193285, -39.33104614880834 7.893275190886686 M-39.33104614880834 7.893275190886686 C-39.47603240681838 7.5351563304832805, -39.621018664828426 7.177037470079876, -39.800134229970325 6.73461856121551 M-39.33104614880834 7.893275190886686 C-39.47830519831466 7.52954249154605, -39.62556424782097 7.165809792205414, -39.800134229970325 6.73461856121551 M-39.800134229970325 6.73461856121551 C-39.884517020267815 6.480471041411287, -39.96889981056531 6.226323521607066, -40.19402313421488 5.5482879393051325 M-39.800134229970325 6.73461856121551 C-39.920506572276395 6.372076244917844, -40.04087891458247 6.009533928620179, -40.19402313421488 5.5482879393051325 M-40.19402313421488 5.5482879393051325 C-40.2611207248538 5.292415745919209, -40.32821831549271 5.036543552533286, -40.51109428754556 4.339158212148136 M-40.19402313421488 5.5482879393051325 C-40.26495376309948 5.27779870983914, -40.33588439198408 5.007309480373148, -40.51109428754556 4.339158212148136 M-40.51109428754556 4.339158212148136 C-40.58433939011558 3.963060090808981, -40.6575844926856 3.5869619694698263, -40.750044776581774 3.112197953150904 M-40.51109428754556 4.339158212148136 C-40.592824258472724 3.9194920850726294, -40.67455422939988 3.4998259579971225, -40.750044776581774 3.112197953150904 M-40.750044776581774 3.112197953150904 C-40.79710864800962 2.747179860169178, -40.844172519437464 2.382161767187452, -40.90989270250937 1.872449005199809 M-40.750044776581774 3.112197953150904 C-40.78839733785205 2.8147430615085476, -40.82674989912231 2.5172881698661906, -40.90989270250937 1.872449005199809 M-40.90989270250937 1.872449005199809 C-40.9310889109745 1.5423009490837667, -40.952285119439644 1.2121528929677243, -40.98998121591342 0.6250057626472781 M-40.90989270250937 1.872449005199809 C-40.929568014460955 1.565990139927852, -40.94924332641254 1.2595312746558949, -40.98998121591342 0.6250057626472781 M-40.98998121591342 0.6250057626472781 C-40.98998121591342 0.3187174106746945, -40.98998121591342 0.012429058702110862, -40.98998121591342 -0.6250057626472687 M-40.98998121591342 0.6250057626472781 C-40.98998121591342 0.3293661185661303, -40.98998121591342 0.03372647448498245, -40.98998121591342 -0.6250057626472687 M-40.98998121591342 -0.6250057626472687 C-40.965917545213564 -0.9998168576428255, -40.94185387451371 -1.3746279526383822, -40.90989270250937 -1.8724490051997822 M-40.98998121591342 -0.6250057626472687 C-40.96911269604758 -0.9500498043236538, -40.94824417618175 -1.275093846000039, -40.90989270250937 -1.8724490051997822 M-40.90989270250937 -1.8724490051997822 C-40.85160353488216 -2.324528278818342, -40.79331436725495 -2.7766075524369023, -40.750044776581774 -3.112197953150895 M-40.90989270250937 -1.8724490051997822 C-40.855932825875925 -2.2909511527858695, -40.80197294924248 -2.7094533003719565, -40.750044776581774 -3.112197953150895 M-40.750044776581774 -3.112197953150895 C-40.693143840079124 -3.404372236074822, -40.63624290357647 -3.6965465189987485, -40.51109428754556 -4.339158212148126 M-40.750044776581774 -3.112197953150895 C-40.69084507574981 -3.416175905061826, -40.63164537491785 -3.7201538569727566, -40.51109428754556 -4.339158212148126 M-40.51109428754556 -4.339158212148126 C-40.431772617682846 -4.64164611756384, -40.35245094782013 -4.944134022979554, -40.19402313421489 -5.548287939305123 M-40.51109428754556 -4.339158212148126 C-40.4188972355201 -4.690745529976319, -40.326700183494644 -5.042332847804513, -40.19402313421489 -5.548287939305123 M-40.19402313421489 -5.548287939305123 C-40.05979479744207 -5.952562303283698, -39.92556646066926 -6.356836667262274, -39.80013422997033 -6.734618561215485 M-40.19402313421489 -5.548287939305123 C-40.09606272636432 -5.8433290798796165, -39.99810231851376 -6.13837022045411, -39.80013422997033 -6.734618561215485 M-39.80013422997033 -6.734618561215485 C-39.633772962170596 -7.145534109057134, -39.46741169437086 -7.556449656898782, -39.33104614880834 -7.893275190886676 M-39.80013422997033 -6.734618561215485 C-39.62449052571282 -7.168461906571542, -39.448846821455305 -7.602305251927599, -39.33104614880834 -7.893275190886676 M-39.33104614880834 -7.893275190886676 C-39.211454843515185 -8.141609095171933, -39.09186353822203 -8.38994299945719, -38.788686474273504 -9.019496659696282 M-39.33104614880834 -7.893275190886676 C-39.17910359773529 -8.208787149239651, -39.02716104666224 -8.524299107592627, -38.788686474273504 -9.019496659696282 M-38.788686474273504 -9.019496659696282 C-38.57705447607398 -9.395270702563145, -38.36542247787446 -9.771044745430011, -38.17528387860425 -10.108655082055243 M-38.788686474273504 -9.019496659696282 C-38.58604784153879 -9.379302071503366, -38.38340920880409 -9.73910748331045, -38.17528387860425 -10.108655082055243 M-38.17528387860425 -10.108655082055243 C-38.02303497056414 -10.342550289361034, -37.87078606252403 -10.576445496666826, -37.49335896464064 -11.156274872382308 M-38.17528387860425 -10.108655082055243 C-38.003098575636436 -10.373177945641617, -37.83091327266862 -10.63770080922799, -37.49335896464064 -11.156274872382308 M-37.49335896464064 -11.156274872382308 C-37.33979934541037 -11.362030772581766, -37.1862397261801 -11.567786672781226, -36.74571390812659 -12.158051136245302 M-37.49335896464064 -11.156274872382308 C-37.20808239644812 -11.538519484530276, -36.922805828255605 -11.920764096678242, -36.74571390812659 -12.158051136245302 M-36.74571390812659 -12.158051136245302 C-36.43711867344494 -12.520544658468655, -36.1285234387633 -12.883038180692006, -35.93542094296866 -13.10986736009567 M-36.74571390812659 -12.158051136245302 C-36.496867396646024 -12.450360408398005, -36.24802088516546 -12.74266968055071, -35.93542094296866 -13.10986736009567 M-35.93542094296866 -13.10986736009567 C-35.701896641366645 -13.351000374201481, -35.46837233976462 -13.592133388307293, -35.065809736767996 -14.007812326905677 M-35.93542094296866 -13.10986736009567 C-35.69015297647994 -13.363126672369816, -35.44488500999122 -13.616385984643964, -35.065809736767996 -14.007812326905677 M-35.065809736767996 -14.007812326905677 C-34.87445353916044 -14.181596962565314, -34.68309734155289 -14.355381598224948, -34.14045370850189 -14.848196188198107 M-35.065809736767996 -14.007812326905677 C-34.88034584099493 -14.176245729940996, -34.69488194522186 -14.344679132976317, -34.14045370850189 -14.848196188198107 M-34.14045370850189 -14.848196188198107 C-33.88072045762476 -15.055326543980533, -33.620987206747635 -15.262456899762958, -33.16315534457872 -15.627565626425149 M-34.14045370850189 -14.848196188198107 C-33.80896577738543 -15.11254899199917, -33.47747784626897 -15.37690179580023, -33.16315534457872 -15.627565626425149 M-33.16315534457872 -15.627565626425149 C-32.86402226265378 -15.836227915113573, -32.56488918072885 -16.044890203801998, -32.137930573605715 -16.342718045390885 M-33.16315534457872 -15.627565626425149 C-32.83889730958726 -15.853753994731093, -32.5146392745958 -16.079942363037038, -32.137930573605715 -16.342718045390885 M-32.137930573605715 -16.342718045390885 C-31.88932180445929 -16.493426142234743, -31.640713035312864 -16.6441342390786, -31.06899226407679 -16.99071473040609 M-32.137930573605715 -16.342718045390885 C-31.74744876196716 -16.579430414332013, -31.356966950328605 -16.81614278327314, -31.06899226407679 -16.99071473040609 M-31.06899226407679 -16.99071473040609 C-30.7956758707221 -17.133303717751726, -30.522359477367413 -17.275892705097363, -29.960732912792388 -17.56889292409717 M-31.06899226407679 -16.99071473040609 C-30.82739104451036 -17.116757931900928, -30.585789824943934 -17.24280113339577, -29.960732912792388 -17.56889292409717 M-29.960732912792388 -17.56889292409717 C-29.530667255098294 -17.759270233313885, -29.1006015974042 -17.949647542530595, -28.817706595147804 -18.07487676824742 M-29.960732912792388 -17.56889292409717 C-29.601898953440998 -17.727738073470825, -29.243064994089607 -17.88658322284448, -28.817706595147804 -18.07487676824742 M-28.817706595147804 -18.07487676824742 C-28.370241096274633 -18.239548208158478, -27.922775597401458 -18.40421964806953, -27.64461025146062 -18.506587066708033 M-28.817706595147804 -18.07487676824742 C-28.56219297212435 -18.16890814346209, -28.3066793491009 -18.26293951867676, -27.64461025146062 -18.506587066708033 M-27.64461025146062 -18.506587066708033 C-27.265744037014127 -18.61903257044641, -26.886877822567637 -18.731478074184785, -26.446264386235413 -18.862249829261067 M-27.64461025146062 -18.506587066708033 C-27.365354149988715 -18.589468811779707, -27.08609804851681 -18.672350556851377, -26.446264386235413 -18.862249829261067 M-26.446264386235413 -18.862249829261067 C-26.200961513584982 -18.918238609192684, -25.955658640934555 -18.974227389124305, -25.227593259676766 -19.140403561325773 M-26.446264386235413 -18.862249829261067 C-25.96838819283987 -18.971321951970005, -25.490511999444333 -19.080394074678942, -25.227593259676766 -19.140403561325773 M-25.227593259676766 -19.140403561325773 C-24.736179937037424 -19.219851456362868, -24.244766614398085 -19.299299351399963, -23.993604652847882 -19.3399052695533 M-25.227593259676766 -19.140403561325773 C-24.948519411389846 -19.185522056866787, -24.669445563102922 -19.2306405524078, -23.993604652847882 -19.3399052695533 M-23.993604652847882 -19.3399052695533 C-23.59655591595892 -19.378208083680008, -23.199507179069954 -19.416510897806717, -22.749369289623903 -19.45993515863156 M-23.993604652847882 -19.3399052695533 C-23.677903336414566 -19.370360595863236, -23.362202019981254 -19.400815922173177, -22.749369289623903 -19.45993515863156 M-22.749369289623903 -19.45993515863156 C-22.37485103071062 -19.47194523023934, -22.000332771797332 -19.48395530184712, -21.500000000000007 -19.5 M-22.749369289623903 -19.45993515863156 C-22.475138807540674 -19.468729196434715, -22.200908325457444 -19.47752323423787, -21.500000000000007 -19.5 M-21.500000000000007 -19.5 C-21.500000000000004 -19.5, -21.500000000000004 -19.5, -21.5 -19.5 M-21.500000000000007 -19.5 C-21.500000000000004 -19.5, -21.500000000000004 -19.5, -21.5 -19.5" stroke="#9370DB" stroke-width="1.3" fill="none" stroke-dasharray="0 0" style=""></path></g><g class="label" style="" transform="translate(-28.625, -12)"><rect></rect><foreignObject width="57.25" height="24"><div xmlns="http://www.w3.org/1999/xhtml" style="display: table-cell; white-space: nowrap; line-height: 1.5; max-width: 200px; text-align: center;"><span class="nodeLabel"><p>Student</p></span></div></foreignObject></g></g><g class="node default" id="flowchart-UI-1" transform="translate(729.95703125, 173)"><rect class="basic label-container" style="" x="-107.2109375" y="-27" width="214.421875" height="54"></rect><g class="label" style="" transform="translate(-77.2109375, -12)"><rect></rect><foreignObject width="154.421875" height="24"><div xmlns="http://www.w3.org/1999/xhtml" style="display: table-cell; white-space: nowrap; line-height: 1.5; max-width: 200px; text-align: center;"><span class="nodeLabel"><p>OpenWebUI Frontend</p></span></div></foreignObject></g></g><g class="node default" id="flowchart-API-3" transform="translate(729.95703125, 301)"><rect class="basic label-container" style="" x="-112.015625" y="-27" width="224.03125" height="54"></rect><g class="label" style="" transform="translate(-82.015625, -12)"><rect></rect><foreignObject width="164.03125" height="24"><div xmlns="http://www.w3.org/1999/xhtml" style="display: table-cell; white-space: nowrap; line-height: 1.5; max-width: 200px; text-align: center;"><span class="nodeLabel"><p>Node.js Express Server</p></span></div></foreignObject></g></g><g class="node default" id="flowchart-Gateway-5" transform="translate(599.67578125, 442.7758903503418)"><rect class="basic label-container" style="fill:#f96 !important;stroke:#f60 !important;stroke-width:2px !important" x="-98.546875" y="-27" width="197.09375" height="54"></rect><g class="label" style="color:#fff !important" transform="translate(-68.546875, -12)"><rect></rect><foreignObject width="137.09375" height="24"><div style="color: rgb(255, 255, 255) !important; display: table-cell; white-space: nowrap; line-height: 1.5; max-width: 200px; text-align: center;" xmlns="http://www.w3.org/1999/xhtml"><span style="color:#fff !important" class="nodeLabel"><p>OpenClaw Gateway</p></span></div></foreignObject></g></g><g class="node default" id="flowchart-State-7" transform="translate(614.703125, 620.0090827941895)"><path d="M0,11.971532799166178 a57.4296875,11.971532799166178 0,0,0 114.859375,0 a57.4296875,11.971532799166178 0,0,0 -114.859375,0 l0,50.97153279916618 a57.4296875,11.971532799166178 0,0,0 114.859375,0 l0,-50.97153279916618" class="basic label-container" style="" transform="translate(-57.4296875, -37.45729919874927)"></path><g class="label" style="" transform="translate(-49.9296875, -2)"><rect></rect><foreignObject width="99.859375" height="24"><div xmlns="http://www.w3.org/1999/xhtml" style="display: table-cell; white-space: nowrap; line-height: 1.5; max-width: 200px; text-align: center;"><span class="nodeLabel"><p>State Memory</p></span></div></foreignObject></g></g><g class="node default" id="flowchart-YAML-9" transform="translate(824.65234375, 620.0090827941895)"><rect class="basic label-container" style="" x="-73.4609375" y="-27" width="146.921875" height="54"></rect><g class="label" style="" transform="translate(-43.4609375, -12)"><rect></rect><foreignObject width="86.921875" height="24"><div xmlns="http://www.w3.org/1999/xhtml" style="display: table-cell; white-space: nowrap; line-height: 1.5; max-width: 200px; text-align: center;"><span class="nodeLabel"><p>agents yaml</p></span></div></foreignObject></g></g><g class="node default" id="flowchart-DB-11" transform="translate(845.2109375, 442.7758903503418)"><path d="M0,14.183927315991564 a81.9609375,14.183927315991564 0,0,0 163.921875,0 a81.9609375,14.183927315991564 0,0,0 -163.921875,0 l0,53.18392731599157 a81.9609375,14.183927315991564 0,0,0 163.921875,0 l0,-53.18392731599157" class="basic label-container" style="" transform="translate(-81.9609375, -40.775890973987345)"></path><g class="label" style="" transform="translate(-74.4609375, -2)"><rect></rect><foreignObject width="148.921875" height="24"><div xmlns="http://www.w3.org/1999/xhtml" style="display: table-cell; white-space: nowrap; line-height: 1.5; max-width: 200px; text-align: center;"><span class="nodeLabel"><p>ClawLearn SQLite DB</p></span></div></foreignObject></g></g><g class="node default" id="flowchart-Engine-13" transform="translate(154.09765625, 620.0090827941895)"><rect class="basic label-container" style="" x="-105.0703125" y="-27" width="210.140625" height="54"></rect><g class="label" style="" transform="translate(-75.0703125, -12)"><rect></rect><foreignObject width="150.140625" height="24"><div xmlns="http://www.w3.org/1999/xhtml" style="display: table-cell; white-space: nowrap; line-height: 1.5; max-width: 200px; text-align: center;"><span class="nodeLabel"><p>Ollama Cloud Router</p></span></div></foreignObject></g></g><g class="node default" id="flowchart-Web-15" transform="translate(117.84375, 819.0835723876953)"><circle class="basic label-container" style="" r="36.703125" cx="0" cy="0"></circle><g class="label" style="" transform="translate(-29.203125, -12)"><rect></rect><foreignObject width="58.40625" height="24"><div xmlns="http://www.w3.org/1999/xhtml" style="display: table-cell; white-space: nowrap; line-height: 1.5; max-width: 200px; text-align: center;"><span class="nodeLabel"><p>Internet</p></span></div></foreignObject></g></g><g class="node default" id="flowchart-Model-17" transform="translate(267.1640625, 819.0835723876953)"><circle class="basic label-container" style="" r="62.6171875" cx="0" cy="0"></circle><g class="label" style="" transform="translate(-55.1171875, -12)"><rect></rect><foreignObject width="110.234375" height="24"><div xmlns="http://www.w3.org/1999/xhtml" style="display: table-cell; white-space: nowrap; line-height: 1.5; max-width: 200px; text-align: center;"><span class="nodeLabel"><p>kimi-k2.5 cloud</p></span></div></foreignObject></g></g></g></g></g></svg>